# xmcd
#
# Track frame offsets:
# 150
# 15470
# 30097
# 46824
# 58947
# 70555
# 85650
# 99602
# 111936
# 123563
# 134290
# 146817
# 162038
# 175713
#
# Disc length: 2513 seconds
#
#
# Revision: 0
# Processed by: cddbd v1.5.1PL0 Copyright (c) Steve Scherf et al.
# Submitted via: FreeRIP 2.941 
#
DISCID=af09cf0e
DTITLE=Tibagi e miltinho - Dia mais triste da vida
DYEAR=1900
DGENRE=Sertanejo
TTITLE0=Dia mais triste da vida
TTITLE1=Que seria
TTITLE2=Ergam as taças
TTITLE3=Falso Amor
TTITLE4=Tarde demais
TTITLE5=Má pagadora
TTITLE6=Tua sombra me persegue
TTITLE7=História de amor
TTITLE8=Amar foi minha ruina
TTITLE9=Fim de uma noite de orgia
TTITLE10=Mensageiro do Além
TTITLE11=Aquele beijo
TTITLE12=Não adianta chorar por ninguém
TTITLE13=Coração Ingrato
EXTD=
EXTT0=
EXTT1=
EXTT2=
EXTT3=
EXTT4=
EXTT5=
EXTT6=
EXTT7=
EXTT8=
EXTT9=
EXTT10=
EXTT11=
EXTT12=
EXTT13=
PLAYORDER=
